<svg width="276px" height="36px" xmlns="http://www.w3.org/2000/svg" viewBox="0 0 1104 144">
  <g id="a95656ff-8eb4-4f2d-8d3f-1974c3a9a284" data-name="Camada 1">
    <g>
      <path d="M972,125.37c1.79-4.22-2.69-14.67-4.16-18.11h0l-8.52,3c3.46,9.82,7,15.76,9.78,16.63l-.07-1.22.36,1.29a1.93,1.93,0,0,0,.41.06,2,2,0,0,0,.76-.15A2.48,2.48,0,0,0,972,125.37Z" style="fill: #fff"/>
      <path d="M946.76,50.75c-2.23,2.78-4.33,8.57-1.69,20.33.93,4.16,3.59,10.67,6.23,17l.88,2.05,2,4.79,9.14-3A43,43,0,0,1,963,79.68a43.44,43.44,0,0,0-.13-14.94c-2.19-10.56-6.08-15.68-9-17a3.16,3.16,0,0,0-1.18-.19A8,8,0,0,0,946.76,50.75Z" style="fill: #fff"/>
      <path d="M966.51,91l4.3-.67a25.88,25.88,0,0,1,.31-5.88l-5-.23Z" style="fill: #fff"/>
      <path d="M972.84,73.73l-5.9-.27c0,.6-.1,1.73-.21,2.91s-.22,2.48-.28,3.11l5.45.49C972.29,77.9,972.65,75.86,972.84,73.73Z" style="fill: #fff"/>
      <path d="M966.48,64.91c.08.38.14.78.19,1.2,0,.26.07.52.12.79.06.46.09.92.12,1.33,0,.25,0,.49.06.69v.55l6-.16a31.89,31.89,0,0,0-.65-5.35c-.05-.27-.11-.55-.17-.83l-5.81,1.22Z" style="fill: #fff"/>
      <path d="M964.6,57.82c.36,1,.66,2,.82,2.6l5.67-1.56A58.53,58.53,0,0,0,969,53l-5.37,2.34C963.86,55.85,964.25,56.83,964.6,57.82Z" style="fill: #fff"/>
      <path d="M960.62,49.74c.55.78,1,1.63,1.32,2.11L967.12,49a33.24,33.24,0,0,0-3.43-5.18l-4.49,4.06A19.53,19.53,0,0,1,960.62,49.74Z" style="fill: #fff"/>
      <path d="M955.21,44.63a13.14,13.14,0,0,1,1.3.78l.23.16,3.85-4.86a14.43,14.43,0,0,0-5.52-2.89l-1.21,6.32.13,0A10.09,10.09,0,0,1,955.21,44.63Z" style="fill: #fff"/>
      <path d="M948.21,45.09l.64-.28c.3-.14.61-.28.91-.39a6.53,6.53,0,0,1,1.36-.37l.13,0-.62-6.47a14.26,14.26,0,0,0-3.28.84,19.8,19.8,0,0,0-2.67,1.26l3.26,5.6Z" style="fill: #fff"/>
      <path d="M942.92,50c.1-.13.19-.28.29-.44a5.59,5.59,0,0,1,.72-1l.53-.64a2.87,2.87,0,0,1,.39-.39l.17-.15.25-.25-4.18-4.88a19.64,19.64,0,0,0-3.88,4.95l5.49,3.08C942.76,50.2,942.84,50.09,942.92,50Z" style="fill: #fff"/>
      <path d="M940.28,57.56c.08-.4.16-.85.25-1.32l.1-.58c.1-.42.21-.82.32-1.17s.13-.44.18-.63a2.64,2.64,0,0,1,.13-.42l-5.82-2.18a27.8,27.8,0,0,0-1.28,6.12l6.09.63Q940.27,57.82,940.28,57.56Z" style="fill: #fff"/>
      <path d="M940.45,66.47c0-.2-.06-.42-.09-.65-.07-.46-.14-1-.17-1.46-.05-.74-.1-1.49-.13-2.06,0-.2,0-.37,0-.51h-6a44.44,44.44,0,0,0,.63,6.23l5.89-1C940.5,66.87,940.48,66.68,940.45,66.47Z" style="fill: #fff"/>
      <path d="M942.05,73.63l-.73-2.69-5.77,1.38c.23.87.47,1.75.74,2.63s.69,2.11,1.13,3.35l5.58-2Z" style="fill: #fff"/>
      <path d="M945.61,83.17l-1.15-2.85L939,82.43c.68,1.75,1.48,3.71,2.38,5.85l5.4-2.23Z" style="fill: #fff"/>
      <path d="M948.47,90.13l-5.4,2.24.52,1.24c.64,1.53,1.29,3.06,1.92,4.59L950.9,96Z" style="fill: #fff"/>
      <path d="M956.75,111.17l-5.56,2c.69,1.68,1.29,3.37,1.87,5l.1.25,5.52-2.22Z" style="fill: #fff"/>
      <path d="M961.47,122.74c-.29-.53-.7-1.3-1-1.94l-.25-.53-5.43,2.44a37.48,37.48,0,0,0,3.15,5.66l4.86-3.43C962.51,124.49,962,123.66,961.47,122.74Z" style="fill: #fff"/>
      <path d="M967.47,129.47l-.27-.12a1.59,1.59,0,0,0-.27-.17,2.53,2.53,0,0,1-.39-.25l-.23-.17a2.86,2.86,0,0,1-.41-.3l-.54-.46-.27-.28-4.3,4.12a14,14,0,0,0,5.24,3.49l1.76-5.71-.08,0Z" style="fill: #fff"/>
      <path d="M971.46,129.57a2,2,0,0,0-.29.09,3.47,3.47,0,0,1-.46.13l-.25.05a1.61,1.61,0,0,1-.39.07h0l.3,6a8.21,8.21,0,0,0,.94-.13,12,12,0,0,0,4.92-2l-3.68-4.7A6.17,6.17,0,0,1,971.46,129.57Z" style="fill: #fff"/>
      <path d="M974.64,126a6.51,6.51,0,0,1-.53,1.35l5,3.17a13.9,13.9,0,0,0,1.71-5.39c0-.2,0-.41,0-.61l-6,.13A11.94,11.94,0,0,1,974.64,126Z" style="fill: #fff"/>
      <path d="M973.86,118.36l.19.8c.13.55.26,1,.33,1.45l.08.34c0,.08,0,.15,0,.21l5.91-1.14a57.57,57.57,0,0,0-1.76-6.28l-5.63,1.7C973.21,116,973.55,117.21,973.86,118.36Z" style="fill: #fff"/>
      <path d="M970.69,108.28c.42,1.18.82,2.37,1,3l5.43-1.79c-.68-1.81-1.38-3.54-2-5.06L970,106.31C970.2,106.92,970.45,107.6,970.69,108.28Z" style="fill: #fff"/>
      <polygon points="970.45 101.56 968.46 95.07 950.54 101.09 952.76 107.78 970.45 101.56" style="fill: #fff"/>
      <path d="M1002.87,77.73l-8.52-3h0c-1.47,3.44-5.94,13.9-4.16,18.11a2.53,2.53,0,0,0,1.44,1.46,2.22,2.22,0,0,0,1.17.1l.36-1.3-.06,1.21C995.94,93.48,999.4,87.56,1002.87,77.73Z" style="fill: #fff"/>
      <path d="M999.25,32.26a43.37,43.37,0,0,0-.14,14.93,42.58,42.58,0,0,1-.31,12.28l9.13,3c.3-.7,1-2.29,1.6-3.76l1.32-3.08c2.64-6.31,5.3-12.82,6.24-17,2.64-11.75.53-17.54-1.7-20.33a8,8,0,0,0-6-3.16,3,3,0,0,0-1.19.2C1005.32,16.57,1001.44,21.7,999.25,32.26Z" style="fill: #fff"/>
      <path d="M995.64,58.47l.35-6.78-5,.23a25.89,25.89,0,0,1,.32,5.88Z" style="fill: #fff"/>
      <path d="M995.22,41l-5.91.27c.19,2.11.54,4.09.94,6.23L995.7,47c-.05-.63-.16-1.87-.28-3.12S995.25,41.57,995.22,41Z" style="fill: #fff"/>
      <path d="M995.18,36.47c0-.24,0-.47.06-.72,0-.42.06-.88.12-1.32,0-.28.08-.55.12-.8.06-.42.11-.82.2-1.21l.11-.55L990,30.65c-.07.27-.13.55-.18.83a30.63,30.63,0,0,0-.64,5.35l6,.15Z" style="fill: #fff"/>
      <path d="M997.55,25.33c.35-1,.75-2,1-2.49l-5.38-2.34a55.52,55.52,0,0,0-2.07,5.88l5.66,1.56C996.89,27.38,997.19,26.34,997.55,25.33Z" style="fill: #fff"/>
      <path d="M1001.53,17.24A20.52,20.52,0,0,1,1003,15.4l-4.48-4.05A32.56,32.56,0,0,0,995,16.53l5.19,2.83A24.35,24.35,0,0,1,1001.53,17.24Z" style="fill: #fff"/>
      <path d="M1005.65,12.92a12.05,12.05,0,0,1,1.26-.76,8.39,8.39,0,0,1,1.26-.47l.12,0-1.21-6.32a14.6,14.6,0,0,0-5.52,2.9l3.85,4.86Z" style="fill: #fff"/>
      <path d="M1012.39,11.93c.29.11.61.25.9.38s.42.2.6.27l.33.18,3.26-5.59a18.71,18.71,0,0,0-2.68-1.26,13.89,13.89,0,0,0-3.28-.84l-.62,6.47.17,0A6.66,6.66,0,0,1,1012.39,11.93Z" style="fill: #fff"/>
      <path d="M1017.12,14.9l.18.17a3.63,3.63,0,0,1,.4.39l.55.66a6.57,6.57,0,0,1,.69.93c.1.16.19.31.29.44l.22.32,5.49-3.08a19.82,19.82,0,0,0-3.88-5l-4.18,4.88Z" style="fill: #fff"/>
      <path d="M1021,21.38c.05.18.11.39.18.61s.23.76.32,1.17l.11.63c.08.46.16.89.23,1.24l0,.5,6.09-.63a27.68,27.68,0,0,0-1.27-6.12L1020.89,21A2.79,2.79,0,0,1,1021,21.38Z" style="fill: #fff"/>
      <path d="M1022.1,29.3v.5c0,.58-.09,1.33-.14,2.08,0,.49-.1,1-.17,1.45,0,.24-.07.45-.09.65s-.05.4-.07.55l5.89,1a43,43,0,0,0,.63-6.23Z" style="fill: #fff"/>
      <path d="M1020.11,41.12l-1,2.74,5.58,2c.45-1.23.82-2.36,1.13-3.34s.52-1.77.74-2.64l-5.77-1.38C1020.68,39,1020.4,40.06,1020.11,41.12Z" style="fill: #fff"/>
      <path d="M1016.54,50.69l-1.15,2.87,5.39,2.23c.92-2.18,1.7-4.11,2.38-5.85l-5.47-2.11C1017.46,48.41,1017,49.55,1016.54,50.69Z" style="fill: #fff"/>
      <path d="M1011.25,63.5l5.4,2.21c.64-1.56,1.3-3.14,2-4.7l.47-1.12-5.4-2.25Z" style="fill: #fff"/>
      <path d="M1003.47,83.76,1009,86l.09-.28c.58-1.63,1.18-3.31,1.88-5l-5.57-2Z" style="fill: #fff"/>
      <path d="M1001.66,88.33c-.28.64-.69,1.4-1,1.92-.5.92-1,1.75-1.34,2.2l4.87,3.43a37.84,37.84,0,0,0,3.14-5.65l-5.42-2.44Z" style="fill: #fff"/>
      <path d="M996.82,95.49l-.57.48a2.94,2.94,0,0,1-.41.31l-.23.17a2.84,2.84,0,0,1-.39.25l-.21.13-.33.16a1.11,1.11,0,0,0-.19.09l-.13,0,1.76,5.71a14.1,14.1,0,0,0,5.25-3.49l-4.31-4.11Z" style="fill: #fff"/>
      <path d="M991.7,97.36l-.25-.06a3.22,3.22,0,0,1-.47-.13l-.24-.07a6,6,0,0,1-1.13-.55l-3.69,4.7a11.93,11.93,0,0,0,4.92,2c.29.06.61.1.95.14l.3-6h0A2,2,0,0,1,991.7,97.36Z" style="fill: #fff"/>
      <path d="M987.51,93.47a9.77,9.77,0,0,1-.27-1.35l-6-.13c0,.2,0,.41,0,.62A14.19,14.19,0,0,0,983,98l5-3.18A6.44,6.44,0,0,1,987.51,93.47Z" style="fill: #fff"/>
      <path d="M987.69,88.47l.08-.36c.08-.38.2-.89.33-1.42l.19-.8c.31-1.17.66-2.34.83-2.94l-5.63-1.69a60.52,60.52,0,0,0-1.76,6.27l5.91,1.14C987.66,88.61,987.67,88.54,987.69,88.47Z" style="fill: #fff"/>
      <path d="M991.47,75.79c.24-.69.5-1.39.71-2L987,71.92c-.61,1.51-1.31,3.25-2,5.06l5.43,1.78C990.64,78.16,991,77,991.47,75.79Z" style="fill: #fff"/>
      <polygon points="991.7 69.08 1009.39 75.29 1011.62 68.61 993.69 62.59 991.7 69.08" style="fill: #fff"/>
    </g>
  </g>
  <g id="bc4df64c-509f-45cf-a5b0-e770bf0acdc4" data-name="Camada 3">
    <g>
      <path d="M137.46,50.52h-54v60.82H70V43.83a6.72,6.72,0,0,1,.52-2.64A7,7,0,0,1,71.94,39a6.53,6.53,0,0,1,2.15-1.45,7.06,7.06,0,0,1,2.7-.52h60.67Zm-6,30.46H88.86V67.41h42.59Z" style="fill: #fff"/>
      <path d="M216.58,111.34H155.13a6.88,6.88,0,0,1-2.7-.52,6.61,6.61,0,0,1-2.15-1.42,6.5,6.5,0,0,1-1.42-2.15,6.86,6.86,0,0,1-.52-2.69V37h13.47V97.87h54.77Z" style="fill: #fff"/>
      <path d="M303.31,81.29A32.75,32.75,0,0,1,301,93.78a29.68,29.68,0,0,1-6.48,9.84,29.12,29.12,0,0,1-9.82,6.45,32.45,32.45,0,0,1-12.36,2.31H254.09a32.68,32.68,0,0,1-12.39-2.31,29,29,0,0,1-9.84-6.45,29.89,29.89,0,0,1-6.5-9.84A32.39,32.39,0,0,1,223,81.29V67.1a32.5,32.5,0,0,1,2.36-12.47A29.16,29.16,0,0,1,241.7,38.34,32.5,32.5,0,0,1,254.09,36h18.23a32.27,32.27,0,0,1,12.36,2.33A29.09,29.09,0,0,1,301,54.63a32.87,32.87,0,0,1,2.33,12.47ZM289.84,67.1a19.8,19.8,0,0,0-1.27-7.23,15.62,15.62,0,0,0-9.12-9.12,19.28,19.28,0,0,0-7.13-1.27H254.09a19.44,19.44,0,0,0-7.18,1.27,16.44,16.44,0,0,0-5.57,3.57,16,16,0,0,0-3.6,5.55,19.6,19.6,0,0,0-1.27,7.23V81.29a19.6,19.6,0,0,0,1.27,7.23,15.81,15.81,0,0,0,3.6,5.54,16.32,16.32,0,0,0,5.57,3.58,19.44,19.44,0,0,0,7.18,1.27h18.13a19.44,19.44,0,0,0,7.18-1.27A16.32,16.32,0,0,0,285,94.06a15.81,15.81,0,0,0,3.6-5.54,19.8,19.8,0,0,0,1.27-7.23Z" style="fill: #fff"/>
      <path d="M387.4,61.91a26.74,26.74,0,0,1-1.17,8.24,23.9,23.9,0,0,1-3.08,6.4,20.87,20.87,0,0,1-4.48,4.74,27.89,27.89,0,0,1-5.31,3.24,24.91,24.91,0,0,1-5.57,1.84,26.86,26.86,0,0,1-5.31.57H357v24.4H343.46V86.94h-5.39a27,27,0,0,1-5.31-.57,25.41,25.41,0,0,1-5.59-1.84,26.7,26.7,0,0,1-5.31-3.24,21.32,21.32,0,0,1-4.48-4.74,23.36,23.36,0,0,1-3.11-6.42,26.93,26.93,0,0,1-1.17-8.22V37h13.47V61.91a12.89,12.89,0,0,0,.83,4.75,10.6,10.6,0,0,0,2.33,3.6,10,10,0,0,0,3.66,2.3,13.49,13.49,0,0,0,4.79.8h24.3c1.27-.2,2.59-.47,3.94-.8a10.58,10.58,0,0,0,3.67-1.68,9.12,9.12,0,0,0,2.75-3.32,12.51,12.51,0,0,0,1.09-5.65V37H387.4Z" style="fill: #fff"/>
      <path d="M473.67,80.26a32.37,32.37,0,0,1-2.36,12.48A29.18,29.18,0,0,1,455,109a32.29,32.29,0,0,1-12.38,2.33H406.21a6.88,6.88,0,0,1-2.7-.52,6.61,6.61,0,0,1-2.15-1.42,6.5,6.5,0,0,1-1.42-2.15,6.86,6.86,0,0,1-.52-2.69V43.83a6.72,6.72,0,0,1,.52-2.64A7,7,0,0,1,401.36,39a6.53,6.53,0,0,1,2.15-1.45,7.06,7.06,0,0,1,2.7-.52h36.37A32.3,32.3,0,0,1,455,39.38a29.13,29.13,0,0,1,16.35,16.29,32.45,32.45,0,0,1,2.36,12.46ZM460.19,68.13a19.87,19.87,0,0,0-1.26-7.2,15.73,15.73,0,0,0-3.61-5.57,16.05,16.05,0,0,0-5.57-3.57,19.39,19.39,0,0,0-7.17-1.27H412.89V97.87h29.69a19.39,19.39,0,0,0,7.17-1.27A16.2,16.2,0,0,0,455.32,93a15.83,15.83,0,0,0,3.61-5.55,19.71,19.71,0,0,0,1.26-7.22Z" style="fill: #fff"/>
      <path d="M561,95a18.62,18.62,0,0,1-.85,5.34,15.5,15.5,0,0,1-7.85,9.35,16.23,16.23,0,0,1-7.62,1.63H493.56a6.83,6.83,0,0,1-2.69-.52,6.49,6.49,0,0,1-3.58-3.57,7,7,0,0,1-.52-2.69V43.83a6.9,6.9,0,0,1,.52-2.64A7,7,0,0,1,488.72,39a6.43,6.43,0,0,1,2.15-1.45,7,7,0,0,1,2.69-.52h45.08a18,18,0,0,1,5.33.89,16.18,16.18,0,0,1,5.32,2.82,15.49,15.49,0,0,1,4.09,5A16.2,16.2,0,0,1,555,53.42V56a28,28,0,0,1-1.19,7.69,25.31,25.31,0,0,1-3.84,7.8,23.41,23.41,0,0,1,4.28,3.37,21.7,21.7,0,0,1,3.5,4.56,24.12,24.12,0,0,1,2.38,5.85,27.53,27.53,0,0,1,.88,7.2Zm-13.47-2.59a12.88,12.88,0,0,0-.83-4.74,10.41,10.41,0,0,0-2.33-3.6,10.17,10.17,0,0,0-3.63-2.31A13.46,13.46,0,0,0,536,81H505.63V67.41h24.3a13.33,13.33,0,0,0,4.77-.81,9.87,9.87,0,0,0,5.93-5.9,13.09,13.09,0,0,0,.81-4.74V53.42c0-1.94-.94-2.9-2.8-2.9H500.25V97.87H544.7c.24,0,.53,0,.88-.05a2.05,2.05,0,0,0,.93-.31,2.13,2.13,0,0,0,.73-.88,3.87,3.87,0,0,0,.31-1.71Z" style="fill: #fff"/>
      <path d="M650.71,81.29a32.75,32.75,0,0,1-2.33,12.49,29.68,29.68,0,0,1-6.48,9.84,29.22,29.22,0,0,1-9.82,6.45,32.45,32.45,0,0,1-12.36,2.31H601.49a32.68,32.68,0,0,1-12.39-2.31,29,29,0,0,1-9.84-6.45,29.73,29.73,0,0,1-6.5-9.84,32.2,32.2,0,0,1-2.36-12.49V67.1a32.31,32.31,0,0,1,2.36-12.47A29.16,29.16,0,0,1,589.1,38.34,32.5,32.5,0,0,1,601.49,36h18.23a32.27,32.27,0,0,1,12.36,2.33,29.83,29.83,0,0,1,9.82,6.45,29.48,29.48,0,0,1,6.48,9.84,32.87,32.87,0,0,1,2.33,12.47ZM637.24,67.1A19.8,19.8,0,0,0,636,59.87a15.62,15.62,0,0,0-9.12-9.12,19.32,19.32,0,0,0-7.13-1.27H601.49a19.44,19.44,0,0,0-7.18,1.27,16.35,16.35,0,0,0-5.57,3.57,15.81,15.81,0,0,0-3.6,5.55,19.6,19.6,0,0,0-1.27,7.23V81.29a19.6,19.6,0,0,0,1.27,7.23,15.67,15.67,0,0,0,3.6,5.54,16.22,16.22,0,0,0,5.57,3.58,19.44,19.44,0,0,0,7.18,1.27h18.13a19.48,19.48,0,0,0,7.18-1.27,16.41,16.41,0,0,0,5.57-3.58,15.81,15.81,0,0,0,3.6-5.54,19.8,19.8,0,0,0,1.27-7.23Z" style="fill: #fff"/>
      <path d="M742,81.29a32.75,32.75,0,0,1-2.33,12.49,29.53,29.53,0,0,1-6.48,9.84,29,29,0,0,1-9.82,6.45A32.44,32.44,0,0,1,711,112.38H692.78a32.59,32.59,0,0,1-12.38-2.31,29,29,0,0,1-9.85-6.45,29.89,29.89,0,0,1-6.5-9.84,32.39,32.39,0,0,1-2.36-12.49V67.1a32.5,32.5,0,0,1,2.36-12.47A29.13,29.13,0,0,1,680.4,38.34,32.41,32.41,0,0,1,692.78,36H711a32.25,32.25,0,0,1,12.35,2.33,29.09,29.09,0,0,1,16.3,16.29A32.87,32.87,0,0,1,742,67.1ZM728.53,67.1a19.6,19.6,0,0,0-1.27-7.23,15.62,15.62,0,0,0-9.12-9.12A19.27,19.27,0,0,0,711,49.48H692.78a19.44,19.44,0,0,0-7.18,1.27A16.44,16.44,0,0,0,680,54.32a16,16,0,0,0-3.6,5.55,19.6,19.6,0,0,0-1.27,7.23V81.29a19.6,19.6,0,0,0,1.27,7.23,15.81,15.81,0,0,0,3.6,5.54,16.32,16.32,0,0,0,5.57,3.58,19.44,19.44,0,0,0,7.18,1.27h18.13a19.44,19.44,0,0,0,7.18-1.27,16.32,16.32,0,0,0,5.57-3.58,15.81,15.81,0,0,0,3.6-5.54,19.6,19.6,0,0,0,1.27-7.23Z" style="fill: #fff"/>
      <path d="M821.43,50.52H791.74v60.82H778.27V50.52H748.53V37h72.9Z" style="fill: #fff"/>
      <path d="M902.72,89.48a23.75,23.75,0,0,1-1,7.17,21.25,21.25,0,0,1-2.67,5.63,18,18,0,0,1-3.88,4.14,24.24,24.24,0,0,1-4.62,2.8,23.07,23.07,0,0,1-4.84,1.6,22.28,22.28,0,0,1-4.64.52h-52V97.87h52a7.92,7.92,0,0,0,6-2.28,8.55,8.55,0,0,0,2.15-6.11,9.82,9.82,0,0,0-.57-3.42,8.09,8.09,0,0,0-1.63-2.7,7.48,7.48,0,0,0-2.59-1.76,9,9,0,0,0-3.4-.62h-31A24.23,24.23,0,0,1,843,79.82a21.17,21.17,0,0,1-7-3.76,20.59,20.59,0,0,1-5.39-6.79A22.36,22.36,0,0,1,828.47,59a22.18,22.18,0,0,1,2.15-10.23A20.64,20.64,0,0,1,843,38.21,23.93,23.93,0,0,1,850.08,37h45.85V50.52H850.08a7.73,7.73,0,0,0-6,2.33A8.74,8.74,0,0,0,841.94,59a8.54,8.54,0,0,0,2.15,6.14,7.87,7.87,0,0,0,6,2.26h31.09a23.47,23.47,0,0,1,9.45,2.28,23.12,23.12,0,0,1,4.59,2.87,19.76,19.76,0,0,1,3.86,4.17,20.73,20.73,0,0,1,2.67,5.6A24.24,24.24,0,0,1,902.72,89.48Z" style="fill: #fff"/>
    </g>
  </g>
</svg>
